# xmcd CD database file
#
# Track frame offsets:
#	150
#	11982
#	26738
#	39074
#	53047
#	66433
#	77990
#	88544
#	102086
#	113326
#	123918
#	137347
#	147437
#	164675
#	178979
#	189010
#	201424
#	215512
#	224911
#	235459
#	248766
#	264199
#	284488
#	296999
#
# Disc length: 4116 seconds
#
# Revision: 0
# Processed by: cddbd v1.5.2PL0 Copyright (c) Steve Scherf et al.
# Submitted via: CDex 1.51
#
DISCID=6f101218
DTITLE=Kenny Rogers - Country Gold
DYEAR=2005
DGENRE=Country
TTITLE0=Elvira
TTITLE1=All God's Lonely Children
TTITLE2=Ruben James
TTITLE3=Molly
TTITLE4=A Stranger In My Place
TTITLE5=Calico Silver
TTITLE6=Good Time Liberator
TTITLE7=I'm Gonna Sing You A Sad Song Suzy
TTITLE8=Girl Get A Hold Of Yourself
TTITLE9=Last Few Threads Of Love
TTITLE10=Shine On Ruby Mountain
TTITLE11=Where Does Rosie Go
TTITLE12=Something's Burning
TTITLE13=It's Raining In My Mind
TTITLE14=New Design
TTITLE15=Shadow In The Corner Of Your Mind
TTITLE16=Sunshine
TTITLE17=Once Again She's All Gone
TTITLE18=Trying Just As Hard
TTITLE19=It's Gonna Get Better
TTITLE20=My Washington Woman
TTITLE21=Lay It Down
TTITLE22=Love Woman
TTITLE23=I Just Wanna Give My Love To You
EXTD=YEAR: 2005
EXTT0=
EXTT1=
EXTT2=
EXTT3=
EXTT4=
EXTT5=
EXTT6=
EXTT7=
EXTT8=
EXTT9=
EXTT10=
EXTT11=
EXTT12=
EXTT13=
EXTT14=
EXTT15=
EXTT16=
EXTT17=
EXTT18=
EXTT19=
EXTT20=
EXTT21=
EXTT22=
EXTT23=
PLAYORDER=
